# xmcd
#
# Track frame offsets:
#	150
#	13087
#	26256
#	43630
#	58198
#	70174
#	86918
#	109089
#	125484
#	141691
#	157706
#	174458
#	191216
#	211574
#	227806
#	241360
#	258719
#	274661
#	291409
#
# Disc length: 4146 seconds
#
# Revision: 1
# Processed by: cddbd v1.5.2PL0 Copyright (c) Steve Scherf et al.
# Submitted via: audiograbber 1.83.01
#
DISCID=1b103013
DTITLE=Various Artist - Hott Country 179
DYEAR=2011
DGENRE=Country
TTITLE0=Alabama - Are You Sure Hank Done It This Way
TTITLE1=Miranda Lambert - Heart Like Mine
TTITLE2=Steel Magnolia - Last Night Again
TTITLE3=Ambush - My Little Girl
TTITLE4=Debbie Bechamp - Flower Of Afghanistan
TTITLE5=Rascal Flatts - I Won't Let Go
TTITLE6=Ridley Bent - All The Heat Is In The Whiskey
TTITLE7=Lady Antebellum - Something 'Bout A  Woman
TTITLE8=Jo Hikk - With A Smile Like That
TTITLE9=Chad Brownlee - Day After You
TTITLE10=Julian Austin - Goodbye Exit Sign
TTITLE11=Randy Rogers Band - Steal You Away
TTITLE12=Court Yard Hounds - Delight
TTITLE13=Brett Eldridge - Raymond
TTITLE14=Lady Antebellum - Love This Pain
TTITLE15=Dean Brody - Wildflower
TTITLE16=Codie Provost - Standing Still
TTITLE17=Paul Brandt - The Highway Patrol
TTITLE18=Ronnie Milsap - Earthquake ( 1987 )
EXTD=January 2011
EXTT0=
EXTT1=
EXTT2=
EXTT3=
EXTT4=
EXTT5=
EXTT6=
EXTT7=
EXTT8=
EXTT9=
EXTT10=
EXTT11=
EXTT12=
EXTT13=
EXTT14=
EXTT15=
EXTT16=
EXTT17=
EXTT18=
PLAYORDER=
